<svg width="512" height="512" viewBox="0 0 512 512" fill="none" xmlns="http://www.w3.org/2000/svg">
<g clip-path="url(#clip0_3_50)">
<rect width="512" height="512" rx="133" fill="#EEF3FB"/>
<g filter="url(#filter0_d_3_50)">
<path d="M429.392 254.998C429.392 351.34 292.583 431.396 254.998 431.396C217.413 431.396 80.6038 351.34 80.6038 254.998C80.6038 158.655 158.655 80.6038 254.998 80.6038C351.34 80.6038 429.392 158.655 429.392 254.998Z" fill="#5993E2"/>
</g>
<path d="M223.026 359.046C224.301 358.006 225.768 357.227 227.344 356.755C228.92 356.282 230.574 356.124 232.211 356.291C233.847 356.457 235.436 356.944 236.884 357.724C238.333 358.504 239.613 359.562 240.653 360.837C245.364 366.613 250.989 368.918 256 368.918C261.012 368.918 266.649 366.613 271.348 360.837C273.448 358.262 276.484 356.627 279.79 356.291C283.096 355.955 286.4 356.946 288.975 359.046C291.55 361.146 293.185 364.182 293.521 367.488C293.857 370.794 292.866 374.098 290.766 376.673C281.696 387.811 269.143 393.962 256 393.962C242.846 393.962 230.317 387.811 221.234 376.673C220.195 375.398 219.416 373.931 218.943 372.355C218.471 370.779 218.313 369.125 218.479 367.488C218.646 365.851 219.133 364.263 219.913 362.815C220.693 361.366 221.751 360.085 223.026 359.046Z" fill="#2A3146"/>
<path d="M136.656 300.187C164.894 328.414 194.286 344.65 222.412 316.549C250.638 288.461 250.387 242.57 222.286 214.481C194.173 186.38 148.395 186.255 120.281 214.481C92.18 242.707 108.429 271.961 136.656 300.175V300.187ZM375.332 300.187C347.081 328.414 317.677 344.65 289.551 316.549C261.437 288.461 261.563 242.57 289.676 214.481C317.802 186.38 363.593 186.255 391.707 214.481C419.833 242.707 403.571 271.961 375.332 300.175V300.187Z" fill="#343B50"/>
<path d="M213.655 251.239C221.297 243.597 219.543 229.565 209.771 219.793C199.999 210.147 185.967 208.267 178.325 215.91C170.682 223.552 172.436 237.584 182.209 247.356C191.981 257.128 206.012 258.882 213.655 251.239ZM380.03 251.239C387.673 243.597 385.919 229.565 376.147 219.793C366.5 210.147 352.343 208.267 344.701 215.91C337.058 223.552 338.812 237.584 348.584 247.356C358.356 257.128 372.388 258.882 380.03 251.239Z" fill="white"/>
</g>
<defs>
<filter id="filter0_d_3_50" x="-169.396" y="-165.396" width="848.788" height="850.792" filterUnits="userSpaceOnUse" color-interpolation-filters="sRGB">
<feFlood flood-opacity="0" result="BackgroundImageFix"/>
<feColorMatrix in="SourceAlpha" type="matrix" values="0 0 0 0 0 0 0 0 0 0 0 0 0 0 0 0 0 0 127 0" result="hardAlpha"/>
<feOffset dy="4"/>
<feGaussianBlur stdDeviation="125"/>
<feComposite in2="hardAlpha" operator="out"/>
<feColorMatrix type="matrix" values="0 0 0 0 0.34902 0 0 0 0 0.576471 0 0 0 0 0.886275 0 0 0 1 0"/>
<feBlend mode="normal" in2="BackgroundImageFix" result="effect1_dropShadow_3_50"/>
<feBlend mode="normal" in="SourceGraphic" in2="effect1_dropShadow_3_50" result="shape"/>
</filter>
<clipPath id="clip0_3_50">
<rect width="512" height="512" fill="white"/>
</clipPath>
</defs>
</svg>
